<svg xmlns="http://www.w3.org/2000/svg" width="41.231" height="41.259" viewBox="0 0 41.231 41.259">
  <g id="Group_1920" data-name="Group 1920" transform="translate(-859.241 -775.316)">
    <g id="Group_1919" data-name="Group 1919" transform="translate(859.238 775.315)">
      <g id="Group_1900" data-name="Group 1900" transform="translate(16.498 0)">
        <g id="Group_1899" data-name="Group 1899">
          <path id="Path_887" data-name="Path 887" d="M10.817,1.864A3.128,3.128,0,0,0,8.841.094,2.915,2.915,0,0,0,5.5,1.612,14.4,14.4,0,0,0,4,8.078v21.5a.672.672,0,0,0,.012.128l1.848,9.585a2.294,2.294,0,0,0,2.261,1.968h0a2.284,2.284,0,0,0,2.257-1.931l1.853-9.622a.679.679,0,0,0,.017-.128V8.074A14.454,14.454,0,0,0,10.817,1.864Zm.054,27.644-1.848,9.6a.908.908,0,0,1-1.8-.037l-1.844-9.56V8.074A13.062,13.062,0,0,1,6.733,2.227a1.53,1.53,0,0,1,1.729-.813A1.765,1.765,0,0,1,9.567,2.433a13.04,13.04,0,0,1,1.3,5.644Z" transform="translate(-4.001 0)" fill="white"/>
        </g>
      </g>
      <g id="Group_1902" data-name="Group 1902" transform="translate(0.003 15.148)">
        <g id="Group_1901" data-name="Group 1901">
          <path id="Path_888" data-name="Path 888" d="M17.534,3.768a.693.693,0,0,0-.677-.017L.366,12.684A.692.692,0,0,0,0,13.291v4.122a.691.691,0,0,0,.3.565.716.716,0,0,0,.392.12.63.63,0,0,0,.243-.041l16.492-6.185a.686.686,0,0,0,.446-.64V4.358A.682.682,0,0,0,17.534,3.768ZM16.5,10.753,1.381,16.423V13.7L16.5,5.513Z" transform="translate(-0.003 -3.672)" fill="white"/>
        </g>
      </g>
      <g id="Group_1904" data-name="Group 1904" transform="translate(23.368 15.148)">
        <g id="Group_1903" data-name="Group 1903">
          <path id="Path_889" data-name="Path 889" d="M23.173,12.684,6.681,3.752A.693.693,0,0,0,6,3.768a.682.682,0,0,0-.338.59v6.874a.686.686,0,0,0,.446.64L22.6,18.056a.736.736,0,0,0,.243.041.716.716,0,0,0,.392-.12.687.687,0,0,0,.293-.565V13.291A.688.688,0,0,0,23.173,12.684Zm-1.011,3.738L7.044,10.753V5.509L22.162,13.7Z" transform="translate(-5.666 -3.672)" fill="white"/>
        </g>
      </g>
      <g id="Group_1906" data-name="Group 1906" transform="translate(8.94 15.835)">
        <g id="Group_1905" data-name="Group 1905">
          <path id="Path_890" data-name="Path 890" d="M4.228,3.838A2.062,2.062,0,0,0,2.169,5.9V7.96H3.543V5.9a.687.687,0,0,1,1.374,0v.689H6.291V5.9A2.063,2.063,0,0,0,4.228,3.838Z" transform="translate(-2.169 -3.838)" fill="white"/>
        </g>
      </g>
      <g id="Group_1908" data-name="Group 1908" transform="translate(2.755 19.267)">
        <g id="Group_1907" data-name="Group 1907">
          <path id="Path_891" data-name="Path 891" d="M2.729,4.67A2.066,2.066,0,0,0,.67,6.733V8.8H2.044V6.733a.687.687,0,0,1,1.374,0H4.792A2.066,2.066,0,0,0,2.729,4.67Z" transform="translate(-0.67 -4.67)" fill="white"/>
        </g>
      </g>
      <g id="Group_1910" data-name="Group 1910" transform="translate(28.179 15.835)">
        <g id="Group_1909" data-name="Group 1909">
          <path id="Path_892" data-name="Path 892" d="M8.895,3.838A2.066,2.066,0,0,0,6.832,5.9v.689H8.206V5.9a.687.687,0,0,1,1.374,0V7.96h1.378V5.9A2.066,2.066,0,0,0,8.895,3.838Z" transform="translate(-6.832 -3.838)" fill="white"/>
        </g>
      </g>
      <g id="Group_1912" data-name="Group 1912" transform="translate(34.364 19.267)">
        <g id="Group_1911" data-name="Group 1911">
          <path id="Path_893" data-name="Path 893" d="M10.39,4.67A2.066,2.066,0,0,0,8.331,6.733H9.7a.687.687,0,0,1,1.374,0V8.8h1.374V6.733A2.069,2.069,0,0,0,10.39,4.67Z" transform="translate(-8.331 -4.67)" fill="white"/>
        </g>
      </g>
      <g id="Group_1914" data-name="Group 1914" transform="translate(10.314 33.11)">
        <g id="Group_1913" data-name="Group 1913">
          <path id="Path_894" data-name="Path 894" d="M11.319,13.434,3.876,14.676V13.129l6.536-3.924-.706-1.18-6.87,4.122a.694.694,0,0,0-.334.594v2.748a.674.674,0,0,0,.243.524.692.692,0,0,0,.441.161l.116-.008,8.244-1.378Z" transform="translate(-2.502 -8.025)" fill="white"/>
        </g>
      </g>
      <g id="Group_1916" data-name="Group 1916" transform="translate(21.883 33.11)">
        <g id="Group_1915" data-name="Group 1915">
          <path id="Path_895" data-name="Path 895" d="M14.02,12.147,7.146,8.025l-.71,1.18,6.54,3.924v1.547L5.529,13.434l-.223,1.353,8.248,1.378.111.008a.692.692,0,0,0,.441-.161.68.68,0,0,0,.243-.524V12.741A.7.7,0,0,0,14.02,12.147Z" transform="translate(-5.306 -8.025)" fill="white"/>
        </g>
      </g>
      <g id="Group_1918" data-name="Group 1918" transform="translate(18.595 4.15)">
        <g id="Group_1917" data-name="Group 1917">
          <path id="Path_896" data-name="Path 896" d="M8.09,2.128A1.679,1.679,0,0,0,6.527,1.006,1.617,1.617,0,0,0,4.979,2.161l-.47,1.374,1.3.441.474-1.4a.268.268,0,0,1,.248-.194.272.272,0,0,1,.256.182l.466,1.411,1.3-.433Z" transform="translate(-4.509 -1.006)" fill="white"/>
        </g>
      </g>
    </g>
  </g>
</svg>
